<svg xmlns="http://www.w3.org/2000/svg" viewBox="0 0 680 490" width="680" height="490" font-family="Segoe UI, Helvetica, Arial, sans-serif">
  <rect width="680" height="490" fill="#ffffff"/>
  <defs>
    <marker id="ar" viewBox="0 0 10 10" refX="8" refY="5" markerWidth="6" markerHeight="6" orient="auto-start-reverse">
      <path d="M2 1L8 5L2 9" fill="none" stroke="#6B7280" stroke-width="1.5" stroke-linecap="round" stroke-linejoin="round"/>
    </marker>
  </defs>
  <rect x="40" y="46" width="600" height="54" rx="10" fill="#E8F0FB" stroke="#2E5C9A"/>
  <text x="340" y="70" text-anchor="middle" fill="#16335C" font-size="14" font-weight="600">UI · Next.js 15 + React 19</text>
  <text x="340" y="88" text-anchor="middle" fill="#2E5C9A" font-size="12">Tailwind · KaTeX · responsive</text>
  <line x1="340" y1="100" x2="340" y2="110" stroke="#6B7280" stroke-width="1.5" marker-end="url(#ar)"/>
  <rect x="40" y="112" width="600" height="32" rx="8" fill="#F0F1F3" stroke="#6B7280"/>
  <text x="340" y="132" text-anchor="middle" fill="#374151" font-size="14" font-weight="600">Vercel edge · CDN — static asset cache</text>
  <line x1="340" y1="144" x2="340" y2="154" stroke="#6B7280" stroke-width="1.5" marker-end="url(#ar)"/>
  <rect x="40" y="156" width="600" height="60" rx="10" fill="#E8F0FB" stroke="#2E5C9A"/>
  <text x="340" y="180" text-anchor="middle" fill="#16335C" font-size="14" font-weight="600">Backend · API routes (serverless)</text>
  <text x="340" y="200" text-anchor="middle" fill="#2E5C9A" font-size="12">/socratic · /question · /lesson · /mastery</text>
  <line x1="132" y1="216" x2="132" y2="256" stroke="#6B7280" stroke-width="1.5" marker-end="url(#ar)"/>
  <line x1="340" y1="216" x2="340" y2="256" stroke="#6B7280" stroke-width="1.5" marker-end="url(#ar)"/>
  <line x1="547" y1="216" x2="547" y2="256" stroke="#6B7280" stroke-width="1.5" marker-end="url(#ar)"/>
  <rect x="40" y="258" width="185" height="58" rx="8" fill="#FBF0DC" stroke="#B5790F"/>
  <text x="132" y="282" text-anchor="middle" fill="#6B4708" font-size="14" font-weight="600">AI · Claude API</text>
  <text x="132" y="300" text-anchor="middle" fill="#8a5d08" font-size="12">generate + tutor</text>
  <rect x="247" y="258" width="185" height="58" rx="8" fill="#E2F4EE" stroke="#1A8A6B"/>
  <text x="339" y="282" text-anchor="middle" fill="#0C4A39" font-size="14" font-weight="600">Data · Firestore</text>
  <text x="339" y="300" text-anchor="middle" fill="#13745a" font-size="12">content + progress</text>
  <rect x="455" y="258" width="185" height="58" rx="8" fill="#E2F4EE" stroke="#1A8A6B"/>
  <text x="547" y="282" text-anchor="middle" fill="#0C4A39" font-size="14" font-weight="600">Auth · Firebase</text>
  <text x="547" y="300" text-anchor="middle" fill="#13745a" font-size="12">Google sign-in</text>
  <text x="40" y="372" fill="#888" font-size="12">Build &amp; deploy (offline)</text>
  <rect x="40" y="386" width="240" height="58" rx="8" fill="#ECE9FB" stroke="#5B4FC0"/>
  <text x="160" y="410" text-anchor="middle" fill="#322a78" font-size="14" font-weight="600">Build · seed pipeline</text>
  <text x="160" y="428" text-anchor="middle" fill="#5247ad" font-size="12">seed-lessons · seed-questions</text>
  <rect x="360" y="386" width="280" height="58" rx="8" fill="#F0F1F3" stroke="#6B7280"/>
  <text x="500" y="410" text-anchor="middle" fill="#374151" font-size="14" font-weight="600">CI/CD · Vercel deploy</text>
  <text x="500" y="428" text-anchor="middle" fill="#555" font-size="12">GitHub → push to deploy</text>
  <line x1="140" y1="386" x2="140" y2="318" stroke="#6B7280" stroke-width="1.5" marker-end="url(#ar)"/>
  <text x="152" y="356" fill="#888" font-size="12">generate</text>
  <path d="M210 386 L210 350 L339 350 L339 318" fill="none" stroke="#6B7280" stroke-width="1.5" marker-end="url(#ar)"/>
  <text x="275" y="343" text-anchor="middle" fill="#888" font-size="12">store + cache</text>
</svg>
